<?xml version="1.0" encoding="iso-8859-1"?>
<!-- Generator: Adobe Illustrator 19.0.0, SVG Export Plug-In . SVG Version: 6.00 Build 0)  -->
<svg version="1.1" id="Layer_1" xmlns="http://www.w3.org/2000/svg" xmlns:xlink="http://www.w3.org/1999/xlink" x="0px" y="0px"
	 viewBox="0 0 512 512" style="enable-background:new 0 0 512 512;" xml:space="preserve">
<circle style="fill:#FEE187;" cx="256" cy="256" r="256"/>
<path style="fill:#FFC61B;" d="M101.44,377.966L234.574,511.1c7.066,0.586,14.208,0.9,21.426,0.9c141.384,0,256-114.616,256-256
	c0-7.216-0.314-14.36-0.9-21.425L410.559,134.034L101.44,377.966z"/>
<path style="fill:#FFFFFF;" d="M384.717,384H127.281c-15.313,0-27.726-12.414-27.726-27.726V155.727
	c0-15.313,12.414-27.727,27.726-27.727h257.436c15.313,0,27.726,12.414,27.726,27.727v200.547
	C412.444,371.586,400.031,384,384.717,384z"/>
<path style="fill:#D3D3D3;" d="M384.717,128H248.529v256h136.189c15.313,0,27.726-12.414,27.726-27.726V155.726
	C412.444,140.414,400.031,128,384.717,128z"/>
<path style="fill:#273B7A;" d="M384.717,121.966H127.281c-18.615,0-33.759,15.145-33.759,33.761v200.545
	c0,18.616,15.145,33.761,33.759,33.761h257.436c18.616,0,33.761-15.145,33.761-33.761V155.727
	C418.478,137.111,403.334,121.966,384.717,121.966z M384.717,377.966H127.281c-11.96,0-21.692-9.733-21.692-21.694V169.805h300.822
	v186.468C406.411,368.233,396.678,377.966,384.717,377.966z"/>
<path style="fill:#121149;" d="M384.717,121.966H248.53v47.838h157.88v186.468c0,11.96-9.733,21.694-21.694,21.694H248.53v12.067
	h136.187c18.616,0,33.761-15.145,33.761-33.761V155.727C418.478,137.111,403.334,121.966,384.717,121.966z"/>
<polygon style="fill:#FFAD9E;" points="379.101,326.68 272.741,326.68 272.741,241.593 325.92,220.32 379.101,241.593 "/>
<g>
	<polygon style="fill:#FF6161;" points="387.803,242.462 325.92,217.71 264.039,242.462 264.039,254.84 325.92,230.086 
		387.803,254.84 	"/>
	<rect x="304.649" y="284.134" style="fill:#FF6161;" width="42.544" height="42.544"/>
</g>
<g>
	<rect x="128.431" y="251.69" style="fill:#366695;" width="84.471" height="8.62"/>
	<rect x="128.431" y="308.579" style="fill:#366695;" width="84.471" height="8.62"/>
	<rect x="128.431" y="280.135" style="fill:#366695;" width="84.471" height="8.62"/>
</g>
<g>
</g>
<g>
</g>
<g>
</g>
<g>
</g>
<g>
</g>
<g>
</g>
<g>
</g>
<g>
</g>
<g>
</g>
<g>
</g>
<g>
</g>
<g>
</g>
<g>
</g>
<g>
</g>
<g>
</g>
</svg>
