<?xml version="1.0" encoding="iso-8859-1"?>
<!-- Generator: Adobe Illustrator 19.0.0, SVG Export Plug-In . SVG Version: 6.00 Build 0)  -->
<svg version="1.1" id="Layer_1" xmlns="http://www.w3.org/2000/svg" xmlns:xlink="http://www.w3.org/1999/xlink" x="0px" y="0px"
	 viewBox="0 0 512 512" style="enable-background:new 0 0 512 512;" xml:space="preserve">
<circle style="fill:#FEE187;" cx="256" cy="256" r="256"/>
<path style="fill:#FFC61B;" d="M511.993,256.496L367.152,111.656L117.153,415.461l92.305,92.305C224.553,510.54,240.106,512,256,512
	C397.219,512,511.726,397.652,511.993,256.496z"/>
<rect x="117.153" y="131.258" style="fill:#386895;" width="163.961" height="284.203"/>
<rect x="197.68" y="131.258" style="fill:#273B7A;" width="83.437" height="284.203"/>
<g>
	<rect x="144.481" y="161.72" style="fill:#FFD9D4;" width="43.723" height="39.753"/>
	<rect x="210.075" y="161.72" style="fill:#FFD9D4;" width="43.723" height="39.753"/>
	<rect x="144.481" y="221.349" style="fill:#FFD9D4;" width="43.723" height="39.753"/>
</g>
<rect x="210.075" y="221.349" style="fill:#FF6262;" width="43.723" height="39.753"/>
<rect x="144.481" y="280.979" style="fill:#FFD9D4;" width="43.723" height="39.753"/>
<rect x="210.075" y="280.979" style="fill:#FF6262;" width="43.723" height="39.753"/>
<rect x="177.269" y="349.884" style="fill:#FFD9D4;" width="43.723" height="65.595"/>
<rect x="197.68" y="349.884" style="fill:#FF6262;" width="23.323" height="65.595"/>
<path style="fill:#366695;" d="M433.854,314.33L433.854,314.33c-11.109,11.109-29.118,11.109-40.227,0l-60.34-60.34
	c-11.109-11.109-11.109-29.118,0-40.226l0,0c11.109-11.109,29.118-11.109,40.227,0l60.34,60.34
	C444.962,285.212,444.962,303.223,433.854,314.33z"/>
<path style="fill:#273B7A;" d="M332.333,214.819c-10.111,11.166-9.814,28.401,0.955,39.171l60.34,60.34
	c10.769,10.769,28.005,11.066,39.171,0.955L332.333,214.819z"/>
<circle style="fill:#FFFFFF;" cx="293.064" cy="173.546" r="85.333"/>
<path style="fill:#CECECE;" d="M231.741,114.228c-32.32,33.399-32.008,86.661,0.979,119.649
	c32.987,32.987,86.25,33.301,119.649,0.979L231.741,114.228z"/>
<path style="fill:#273B7A;" d="M293.061,270.076c-25.786,0-50.029-10.042-68.263-28.275c-37.64-37.64-37.64-98.883,0-136.525
	c37.643-37.638,98.883-37.641,136.526,0c37.64,37.641,37.64,98.885,0,136.526C343.09,260.034,318.847,270.076,293.061,270.076z
	 M293.062,99.447c-18.984,0-37.966,7.225-52.417,21.675c-28.901,28.903-28.901,75.931,0,104.834
	c14.002,14,32.616,21.711,52.415,21.711c19.799,0,38.416-7.711,52.417-21.711c28.901-28.903,28.901-75.931,0-104.834
	C331.026,106.672,312.044,99.447,293.062,99.447z"/>
<path style="fill:#121149;" d="M344.448,226.935c-13.879,13.367-32.065,20.73-51.388,20.73c-19.799,0-38.414-7.711-52.415-21.711
	c-28.563-28.565-28.877-74.824-0.979-103.803l-15.846-15.846c-36.635,37.719-36.323,98.192,0.979,135.494
	c18.234,18.234,42.477,28.276,68.263,28.276c25.31,0,49.121-9.695,67.234-27.295L344.448,226.935z"/>
<g>
</g>
<g>
</g>
<g>
</g>
<g>
</g>
<g>
</g>
<g>
</g>
<g>
</g>
<g>
</g>
<g>
</g>
<g>
</g>
<g>
</g>
<g>
</g>
<g>
</g>
<g>
</g>
<g>
</g>
</svg>
