<?xml version="1.0" encoding="utf-8"?>
<!-- Generator: Adobe Illustrator 19.2.1, SVG Export Plug-In . SVG Version: 6.00 Build 0)  -->
<svg version="1.1" id="Layer_1" xmlns="http://www.w3.org/2000/svg" xmlns:xlink="http://www.w3.org/1999/xlink" x="0px" y="0px"
	 viewBox="0 0 229.3 223" style="enable-background:new 0 0 229.3 223;" xml:space="preserve">
<style type="text/css">
	.st0{fill-rule:evenodd;clip-rule:evenodd;fill:#62B194;}
</style>
<g>
	<path class="st0" d="M108.7,63.2h1.5c1.9,0,3.5,1.6,3.5,3.5v3.9h-8.5v-3.9C105.1,64.8,106.7,63.2,108.7,63.2L108.7,63.2z"/>
</g>
<g>
	<path class="st0" d="M134.6,81l0,5.8l75.3,0.2l0-5.8L134.6,81L134.6,81z M129.3,86.8l0-5.8l-32.7,0.1c-1.2,0-2.2-1-2.2-2.2l0-3.4
		c0-1.2,1-2.2,2.2-2.2l128.1,0c1.2,0,2.2,1,2.2,2.2l0,3.4c0,1.2-1,2.2-2.2,2.2l-9.3,0l0,5.8l9.2,0c1,0,1.8,0.8,1.8,1.8l0.1,39.7
		c0,1-0.8,1.8-1.8,1.8l-104.4-0.1c-1,0-1.8-0.8-1.8-1.8l-0.1-39.7c0-1,0.8-1.8,1.8-1.8L129.3,86.8L129.3,86.8z M126.6,110.9
		c0-3.7,0-4.4,0-5.2c0-0.8-0.2-1.2-1-1.4c-0.2,0-0.6-0.1-0.8-0.1c-0.1,0-0.2,0-0.2-0.1c0-0.1,0.1-0.2,0.4-0.2c1,0,2.4,0.1,2.5,0.1
		c0.2,0,1.9-0.1,2.6-0.1c1.4,0,2.9,0.1,4.1,1c0.6,0.4,1.5,1.6,1.5,3.2c0,1.8-0.7,3.5-2.7,5.5c1.8,2.5,3.3,4.6,4.6,6.1
		c1.2,1.4,2.2,1.6,2.7,1.7c0.4,0.1,0.7,0.1,0.9,0.1c0.1,0,0.2,0.1,0.2,0.1c0,0.1-0.1,0.2-0.5,0.2h-1.6c-1.2,0-1.8-0.1-2.4-0.5
		c-1-0.5-1.7-1.7-3-3.5c-0.9-1.3-2-2.9-2.4-3.5c-0.1-0.1-0.2-0.1-0.3-0.1l-2.7,0c-0.1,0-0.2,0.1-0.2,0.2v0.6c0,2.3,0,4.2,0.1,5.2
		c0.1,0.7,0.2,1.2,0.9,1.3c0.3,0,0.8,0.1,1,0.1c0.1,0,0.2,0.1,0.2,0.1c0,0.1-0.1,0.2-0.4,0.2c-1.2,0-2.6-0.1-2.7-0.1
		c0,0-1.4,0.1-2.1,0.1c-0.2,0-0.4,0-0.4-0.2c0-0.1,0-0.1,0.2-0.1c0.2,0,0.5,0,0.7-0.1c0.4-0.1,0.6-0.6,0.6-1.3
		c0.1-1,0.1-2.9,0.1-5.2V110.9z M128.4,112.9c0,0.1,0,0.2,0.2,0.3c0.3,0.2,1.4,0.4,2.3,0.4c0.5,0,1.2-0.1,1.7-0.5
		c0.8-0.6,1.4-1.9,1.4-3.7c0-3-1.5-4.8-3.8-4.8c-0.7,0-1.3,0.1-1.5,0.1c-0.1,0-0.2,0.1-0.2,0.3V112.9z M144,112.5c0-3.1,0-3.7,0-4.3
		c0-0.7-0.2-1-0.8-1.1c-0.1,0-0.4,0-0.5,0c-0.2,0-0.3-0.1-0.3-0.1c0-0.1,0.1-0.2,0.3-0.2c0.4,0,1,0,2.3,0.1c0.1,0,4.1,0,4.5,0
		c0.4,0,0.7,0,0.9-0.1c0.1,0,0.2-0.1,0.2-0.1c0,0,0.1,0,0.1,0.2c0,0.1-0.1,0.5-0.2,1.1c0,0.4,0,0.8-0.1,1.2c0,0.2,0,0.4-0.2,0.4
		s-0.2-0.1-0.2-0.3c0-0.4-0.1-0.6-0.2-0.8c-0.1-0.5-0.3-0.6-1.4-0.7c-0.3,0-2.5,0-2.5,0c-0.1,0-0.1,0-0.1,0.2v5.4
		c0,0.1,0,0.2,0.1,0.2c0.3,0,2.5,0,3-0.1c0.5,0,0.8-0.1,1-0.4c0.1-0.1,0.2-0.2,0.2-0.2c0,0,0.1,0,0.1,0.1s-0.1,0.6-0.2,1.3
		c-0.1,0.7-0.1,1.1-0.1,1.5c0,0.2-0.1,0.3-0.2,0.3c-0.1,0-0.1-0.1-0.1-0.3c0-0.1,0-0.4-0.1-0.6c-0.1-0.3-0.2-0.6-1.1-0.7
		c-0.5,0-2.3-0.1-2.7-0.1c-0.1,0-0.2,0.1-0.2,0.2v1.7c0,0.7,0,2.8,0,3.2c0,0.9,0.2,1.3,0.6,1.5c0.3,0.2,0.9,0.2,1.6,0.2
		c0.4,0,1.1,0,1.7-0.1c0.7-0.2,0.8-0.7,1-1.6c0-0.2,0.1-0.3,0.2-0.3c0.1,0,0.1,0.2,0.1,0.4c0,0.2-0.2,1.7-0.2,2.1
		c-0.1,0.5-0.2,0.5-1,0.5c-1.5,0-2.1,0-2.9,0c-0.8,0-1.8-0.1-2.6-0.1c-0.5,0-0.9,0.1-1.5,0.1c-0.2,0-0.3,0-0.3-0.2
		c0-0.1,0.1-0.2,0.2-0.2c0.1,0,0.3,0,0.4-0.1c0.4-0.1,0.7-0.4,0.7-1.9c0-0.8,0-1.8,0-3.6V112.5z M153.6,107.3c0-0.7,0.1-1,0.2-1
		c0.2,0,0.5,0.5,0.7,0.6c0.2,0.2,3.3,3.6,6.4,7c1.7,1.8,4,4.3,4.5,4.8l-0.2-9.9c0-1.3-0.2-1.7-0.8-1.9c-0.4-0.1-0.7-0.1-0.9-0.1
		c-0.2,0-0.3-0.1-0.3-0.2c0-0.1,0.2-0.1,0.4-0.1c1,0,1.9,0.1,2.1,0.1c0.2,0,0.9-0.1,1.8-0.1c0.2,0,0.3,0,0.3,0.1
		c0,0.1-0.1,0.2-0.2,0.2c-0.1,0-0.3,0-0.6,0.1c-0.5,0.1-0.7,0.4-0.7,1.8l0,12c0,1.2,0,1.3-0.2,1.3s-0.4-0.2-1.5-1.3
		c-0.1,0-3.2-3.3-5.1-5.4c-2.3-2.6-4.5-5.1-5.1-5.7l0.3,9.3c0,1.6,0.2,2.3,0.7,2.4c0.4,0.1,0.7,0.1,0.9,0.1c0.2,0,0.3,0.1,0.3,0.2
		c0,0.1-0.1,0.2-0.4,0.2c-1.2,0-2-0.1-2.2-0.1c-0.2,0-1,0.1-1.9,0.1c-0.2,0-0.3,0-0.3-0.2c0-0.1,0.1-0.2,0.3-0.2
		c0.2,0,0.4,0,0.7-0.1c0.5-0.2,0.6-0.8,0.6-2.6C153.6,107.6,153.7,111.3,153.6,107.3z M176.4,116.1c0,1.8,0,3.5,0.1,4.4
		c0.1,0.6,0.1,0.9,0.7,1c0.3,0.1,0.7,0.1,0.9,0.1s0.3,0.1,0.3,0.1c0,0.1-0.1,0.2-0.3,0.2c-1.1,0-2.4-0.1-2.5-0.1
		c-0.1,0-1.4,0.1-2,0.1c-0.2,0-0.3,0-0.3-0.2c0-0.1,0.1-0.2,0.2-0.2c0.2,0,0.3,0,0.5,0c0.4-0.1,0.5-0.4,0.6-1.2
		c0.1-0.9,0.1-2.6,0.1-4.4v-8.5c-0.7,0-1.9,0-2.8,0c-1.4,0-1.7,0.3-2,0.8c-0.2,0.3-0.3,0.6-0.3,0.7c-0.1,0.2-0.1,0.2-0.2,0.2
		c-0.1,0-0.1-0.1-0.1-0.2c0-0.1,0.3-1.7,0.4-2.4c0.1-0.3,0.1-0.4,0.2-0.4c0.2,0,0.6,0.2,1,0.3c0.8,0.1,1.4,0.1,1.4,0.1h7.3
		c0.6,0,1.3,0,1.6-0.1c0.3-0.1,0.4-0.1,0.4-0.1c0.1,0,0.1,0.1,0.1,0.2c0,0.7,0,2.2,0,2.4c0,0.2-0.1,0.3-0.2,0.3
		c-0.1,0-0.2-0.1-0.2-0.3c0-0.1,0-0.1,0-0.3c-0.1-1-0.4-1.2-2.6-1.2c-0.8,0-1.5,0-2.2,0V116.1z M184.3,112.5c0-3.1,0-3.7,0-4.4
		c0-0.6-0.2-1-0.6-1.1c-0.2,0-0.4,0-0.5-0.1c-0.2,0-0.2-0.1-0.2-0.2c0-0.1,0.1-0.2,0.3-0.2c0.7,0,2,0.1,2,0.1c0.1,0,1.4-0.1,2-0.1
		c0.2,0,0.3,0,0.3,0.2c0,0.1-0.1,0.1-0.2,0.2c-0.1,0-0.2,0-0.4,0c-0.6,0.1-0.7,0.5-0.8,1.1c0,0.6,0,1.2,0,4.3v3.6
		c0,1.8,0,3.5,0.1,4.4c0.1,0.7,0.2,1,0.8,1.1c0.3,0.1,0.8,0.1,0.8,0.1c0.2,0,0.2,0.1,0.2,0.2s-0.1,0.2-0.3,0.2
		c-1.1,0-2.4-0.1-2.5-0.1c-0.1,0-1.4,0.1-2,0.1c-0.2,0-0.4,0-0.4-0.2c0-0.1,0.1-0.2,0.3-0.2c0.1,0,0.4,0,0.5-0.1
		c0.4-0.1,0.4-0.6,0.5-1.1c0.1-0.9,0.1-2.6,0.1-4.3V112.5z M191,107.2c0-0.7,0.1-1,0.2-1c0.2,0,0.5,0.5,0.7,0.6
		c0.2,0.2,3.3,3.6,6.4,7c1.7,1.8,4,4.3,4.5,4.8l-0.2-9.9c0-1.3-0.2-1.7-0.8-1.9c-0.4-0.1-0.7-0.1-0.9-0.1c-0.2,0-0.3-0.1-0.3-0.2
		c0-0.1,0.2-0.1,0.4-0.1c1,0,1.9,0.1,2.1,0.1c0.2,0,0.9-0.1,1.8-0.1c0.2,0,0.3,0,0.3,0.1c0,0.1-0.1,0.2-0.2,0.2
		c-0.1,0-0.3,0-0.6,0.1c-0.5,0.1-0.7,0.4-0.7,1.8l0,12c0,1.2,0,1.3-0.2,1.3s-0.4-0.2-1.5-1.3c-0.1,0-3.2-3.3-5.1-5.4
		c-2.3-2.6-4.5-5.1-5.1-5.7l0.3,9.3c0,1.6,0.2,2.3,0.7,2.4c0.4,0.1,0.7,0.1,0.9,0.1c0.2,0,0.3,0.1,0.3,0.2c0,0.1-0.1,0.2-0.4,0.2
		c-1.2,0-2-0.1-2.2-0.1c-0.2,0-1,0.1-1.9,0.1c-0.2,0-0.3,0-0.3-0.2c0-0.1,0.1-0.2,0.3-0.2c0.2,0,0.4,0,0.7-0.1
		c0.5-0.2,0.6-0.8,0.6-2.6C191,107.5,191,111.2,191,107.2z M219,120.1c0,1,0,1-0.3,1.1c-1.2,0.7-3,0.9-4.1,0.9
		c-1.4,0-4.2-0.1-6.5-2.1c-1.2-1.1-2.4-3.1-2.4-5.8c0-3.2,1.5-5.6,3.4-6.7c1.7-1.1,3.6-1.2,5-1.2c1.4,0,2.4,0.2,3.2,0.3
		c0.4,0.1,1.2,0.2,1.7,0.2c0.2,0,0.2,0.1,0.2,0.2c0,0.3-0.2,1-0.2,3.1c0,0.3,0,0.4-0.2,0.4c-0.1,0-0.1-0.1-0.2-0.3
		c0-0.2-0.1-1-0.4-1.5c-0.5-0.8-2.1-1.7-4.6-1.7c-1.2,0-2.6,0-4.1,1.3c-1.1,0.9-1.9,2.7-1.9,5.1c0,2.8,1.4,4.9,2,5.5
		c1.5,1.5,3.1,2.2,5,2.2c0.6,0,1.6-0.1,2.1-0.4c0.2-0.1,0.4-0.4,0.4-0.7v-3.4c0-1.6-0.1-1.9-0.9-2c-0.1,0-0.4,0-0.5,0
		c-0.2,0-0.3-0.1-0.3-0.2c0-0.1,0.1-0.2,0.3-0.2c0.9,0,2.2,0,2.3,0c0.1,0,1.4,0,2,0c0.2,0,0.3,0,0.3,0.2c0,0.1-0.1,0.2-0.3,0.2
		c-0.2,0-0.2,0-0.4,0c-0.5,0.1-0.7,0.5-0.7,1.2s0,1.3,0,2.1V120.1z"/>
</g>
<g>
	<path class="st0" d="M79.4,146.2l0,46l0,14.8v0.5c6.1,0.9,11.6,8.5,11.6,13.3l-32,0c0.1-3.8,5.7-12.5,11.9-13.3c0.1,0,0-0.4,0-0.5
		l0-14.8l0-45.6L79.4,146.2z"/>
</g>
<g>
	<path class="st0" d="M113.6,84.7l-0.6,59.8l0,52.3v0.5c6.1,0.9,11.6,8.5,11.6,13.3l-32,0c0.1-3.8,5.7-12.5,11.9-13.3
		c0.1,0,0-0.4,0-0.5l0-52.3l0.6-59.8L113.6,84.7z"/>
</g>
<g>
	<path class="st0" d="M99.6,98.4l2.6,43.7l-79.1,4.7L3,126L20.6,103L99.6,98.4L99.6,98.4z M17,123.5c-0.2-3.5-0.2-4.1-0.3-4.8
		c-0.1-0.8-0.3-1.1-1-1.2c-0.2,0-0.5,0-0.6,0c-0.2,0-0.3,0-0.3-0.1c0-0.1,0.1-0.2,0.3-0.2c0.9-0.1,2.3-0.1,2.4-0.1
		c0.5,0,1.3-0.1,2.3-0.2c3.4-0.2,4.3,2,4.4,3.1c0.1,1.8-0.8,3-1.7,4.1c1.6,0.4,3.7,1.9,3.9,4.5c0.1,2.4-1.5,5-5,5.2
		c-0.2,0-0.9,0-1.5,0c-0.6,0-1.2,0-1.3,0c-0.7,0-1.3,0.1-2,0.2c-0.2,0-0.3,0-0.3-0.1c0-0.1,0-0.2,0.3-0.2c0.2,0,0.3,0,0.5-0.1
		c0.4-0.1,0.5-0.6,0.5-1.3c0-0.9-0.1-2.7-0.2-4.9L17,123.5z M18.6,123.9c0,0.2,0.1,0.2,0.2,0.2c0.1,0,0.5,0.1,1.3,0
		c1.2-0.1,1.5-0.1,1.9-0.7c0.4-0.6,0.7-1.4,0.6-2.3c-0.1-1.9-1-3.8-3-3.7c-0.2,0-0.7,0.1-1,0.2c-0.2,0.1-0.2,0.1-0.2,0.3L18.6,123.9
		z M18.8,126.2c0.1,1.7,0.3,4.5,0.3,4.8c0.1,1.1,0.1,1.4,0.8,1.7c0.6,0.3,1.5,0.2,1.9,0.2c1.1-0.1,2.9-0.8,2.7-3.4
		c-0.1-1.3-0.6-3.3-2.3-4.3c-0.7-0.5-1.3-0.5-1.8-0.5c-0.3,0-1.3,0-1.6,0.1c-0.1,0-0.1,0.1-0.1,0.2L18.8,126.2z M31.9,126.8
		c0.2,2.7,0.7,3.9,1.6,4.6c0.9,0.8,2,0.9,2.8,0.9c1.1-0.1,2-0.4,2.8-1.5c0.8-1.1,0.9-2.8,0.7-4.7l-0.1-2.4c-0.2-2.9-0.2-3.4-0.3-4
		c-0.1-0.6-0.2-1-0.8-1c-0.1,0-0.4,0-0.6,0c-0.1,0-0.2-0.1-0.2-0.1c0-0.1,0.1-0.2,0.3-0.2c0.9-0.1,1.9,0,2-0.1c0.1,0,1-0.1,1.6-0.2
		c0.2,0,0.3,0,0.3,0.1c0,0.1-0.1,0.2-0.2,0.2c-0.1,0-0.2,0-0.4,0c-0.6,0.1-0.6,0.5-0.6,1.2c0,0.6,0,1.1,0.2,4l0.1,2
		c0.1,2,0.1,4.4-1.3,5.9c-1.3,1.3-2.6,1.5-3.7,1.6c-0.6,0-2.5,0.2-4-1.1c-0.9-0.8-1.7-2.1-1.8-4.9l-0.2-2.8c-0.2-3-0.2-3.5-0.3-4.1
		c-0.1-0.6-0.2-1-0.8-1c-0.1,0-0.4,0-0.5,0c-0.1,0-0.2-0.1-0.2-0.1c0-0.1,0.1-0.2,0.3-0.2c0.9-0.1,2-0.1,2.2-0.1
		c0.2,0,1.4-0.2,2-0.2c0.2,0,0.3,0,0.3,0.1c0,0.1-0.1,0.2-0.2,0.2c-0.1,0-0.3,0-0.5,0.1c-0.5,0.1-0.6,0.5-0.6,1.1
		c0,0.6,0,1.1,0.2,4.1L31.9,126.8z M49,127.1c-0.1-1.1-0.2-1.5-0.6-2c-0.1-0.2-2.8-4.3-3.5-5.2c-0.6-0.8-0.8-1.1-1.1-1.3
		c-0.3-0.2-0.6-0.3-1-0.3c-0.1,0-0.2-0.1-0.2-0.2c0-0.1,0.1-0.1,0.2-0.1c0.3,0,1.9,0,2-0.1c0.1,0,0.8-0.1,1.6-0.2
		c0.2,0,0.3,0,0.3,0.1c0,0.1-0.1,0.1-0.2,0.2c-0.3,0.1-0.3,0.2-0.3,0.4c0,0.2,0.2,0.4,0.3,0.7c0.3,0.5,3.3,5.1,3.7,5.7
		c0.3-0.8,2.4-5,2.6-5.6c0.4-0.8,0.4-1,0.4-1.2c0-0.3-0.3-0.3-0.5-0.3c-0.2,0-0.2-0.1-0.2-0.2c0-0.1,0-0.1,0.2-0.1
		c0.5,0,0.9,0,1.3,0c0.3,0,1.5-0.2,1.8-0.2c0.2,0,0.3,0.1,0.3,0.1c0,0.1-0.1,0.2-0.2,0.2c-0.4,0-0.7,0.1-1,0.4
		c-0.3,0.2-0.4,0.5-0.7,1c-1.1,1.9-2.9,5.6-3.2,6.4c-0.2,0.7-0.1,1.2-0.1,1.8l0.1,1.6c0,0.2,0.1,1,0.1,1.8c0.1,0.5,0.1,0.9,0.8,1
		c0.3,0.1,0.6,0.1,0.8,0c0.2,0,0.2,0.1,0.2,0.1c0,0.1-0.1,0.2-0.2,0.2c-1,0.1-2.3,0.1-2.4,0.1c0,0-1.3,0.1-1.9,0.2
		c-0.2,0-0.3,0-0.3-0.2c0-0.1,0.1-0.1,0.2-0.1c0.2,0,0.4,0,0.5-0.1c0.3-0.1,0.5-0.6,0.5-1.1c0-0.8,0-1.6,0-1.8L49,127.1z
		 M59.2,122.5c-0.2-3-0.2-3.5-0.3-4.1c-0.1-0.6-0.2-0.9-0.7-1c-0.2,0-0.4,0-0.5,0c-0.1,0-0.2-0.1-0.2-0.1c0-0.1,0.1-0.2,0.3-0.2
		c0.6,0,1.8,0,1.9,0c0.1,0,1.3-0.1,1.9-0.2c0.2,0,0.3,0,0.3,0.1c0,0.1-0.1,0.1-0.2,0.2c-0.1,0-0.2,0-0.4,0.1
		c-0.6,0.1-0.6,0.5-0.6,1.1c0,0.6,0,1.1,0.2,4.1l0.2,3.4c0.1,1.7,0.2,3.3,0.3,4.1c0.1,0.6,0.2,0.9,0.8,1c0.3,0.1,0.7,0,0.8,0
		c0.2,0,0.2,0.1,0.2,0.1c0,0.1-0.1,0.2-0.3,0.2c-1.1,0.1-2.3,0.1-2.4,0.1c-0.1,0-1.3,0.1-1.9,0.2c-0.2,0-0.3,0-0.3-0.1
		c0-0.1,0.1-0.2,0.3-0.2c0.1,0,0.3,0,0.5-0.1c0.3-0.1,0.4-0.6,0.4-1.1c0.1-0.8,0-2.4-0.1-4.1L59.2,122.5z M66.7,117.2
		c0-0.7,0-0.9,0.2-0.9c0.1,0,0.5,0.4,0.7,0.6c0.2,0.2,3.3,3.2,6.4,6.2c1.7,1.6,3.9,3.8,4.5,4.3l-0.8-9.3c-0.1-1.2-0.2-1.6-0.8-1.7
		c-0.4,0-0.7,0-0.8,0c-0.2,0-0.3-0.1-0.3-0.2c0-0.1,0.2-0.1,0.4-0.2c0.9-0.1,1.8,0,2-0.1c0.2,0,0.9-0.1,1.7-0.2c0.2,0,0.3,0,0.3,0.1
		c0,0.1-0.1,0.2-0.2,0.2c-0.1,0-0.3,0-0.5,0.1c-0.5,0.1-0.6,0.4-0.5,1.7l0.6,11.2c0.1,1.1,0,1.2-0.1,1.2c-0.1,0-0.4-0.1-1.4-1.1
		c-0.1,0-3.2-2.9-5.1-4.7c-2.3-2.3-4.5-4.5-5.1-5l0.8,8.7c0.1,1.5,0.3,2.1,0.8,2.2c0.3,0.1,0.7,0,0.9,0c0.2,0,0.3,0.1,0.3,0.1
		c0,0.1-0.1,0.2-0.3,0.2c-1.1,0.1-1.9,0-2,0.1c-0.1,0-0.9,0.1-1.8,0.2c-0.2,0-0.3,0-0.3-0.1c0-0.1,0.1-0.2,0.3-0.2
		c0.1,0,0.4,0,0.6-0.1c0.4-0.2,0.5-0.8,0.4-2.4C66.7,117.4,66.9,120.9,66.7,117.2z M96.1,127.5c0.1,0.9,0,0.9-0.2,1.1
		c-1.1,0.7-2.8,1-3.8,1.1c-1.4,0.1-4,0.1-6.2-1.6c-1.2-0.9-2.4-2.7-2.6-5.3c-0.2-3,1.1-5.3,2.8-6.5c1.5-1.1,3.3-1.3,4.6-1.4
		c1.3-0.1,2.2,0,3,0.1c0.3,0,1.2,0.1,1.6,0.1c0.2,0,0.2,0.1,0.2,0.2c0,0.3-0.1,0.9,0,2.9c0,0.3,0,0.4-0.1,0.4
		c-0.1,0-0.1-0.1-0.2-0.3c0-0.2-0.1-0.9-0.5-1.4c-0.5-0.7-2.1-1.4-4.4-1.3c-1.1,0.1-2.4,0.2-3.8,1.4c-1,0.9-1.6,2.7-1.5,4.9
		c0.2,2.7,1.6,4.5,2.2,5.1c1.5,1.3,3,1.9,4.9,1.8c0.6,0,1.5-0.2,2-0.5c0.2-0.1,0.3-0.4,0.3-0.7l-0.2-3.2c-0.1-1.5-0.2-1.8-0.9-1.8
		c-0.1,0-0.3,0-0.5,0c-0.2,0-0.3-0.1-0.3-0.1c0-0.1,0.1-0.2,0.3-0.2c0.8-0.1,2-0.1,2.1-0.1c0.1,0,1.3-0.1,1.9-0.2
		c0.2,0,0.3,0,0.3,0.1c0,0.1-0.1,0.2-0.2,0.2c-0.1,0-0.2,0-0.4,0c-0.5,0.1-0.6,0.5-0.6,1.2c0,0.7,0,1.2,0.1,2L96.1,127.5z"/>
</g>
<g>
	<path class="st0" d="M75.8,2.5c1.9,0,3.5,1.6,3.5,3.5V12l-8.5-0.4V6c0-1.9,1.6-3.5,3.5-3.5H75.8L75.8,2.5z"/>
</g>
<g>
	<path class="st0" d="M50.6,13.3l77.1,3.1l17.5,22L126,59l-77.1-3.1L50.6,13.3L50.6,13.3z M55.8,42.8c-0.3-0.2-0.3-0.3-0.3-0.9
		c0-1.2,0.1-2.1,0.2-2.4c0-0.3,0.1-0.4,0.2-0.4c0.1,0,0.1,0.1,0.1,0.3c0,0.2,0,0.5,0,0.9c0.3,1.7,1.7,2.4,3.1,2.4
		c2.1,0.1,3.1-1.5,3.2-3c0-1.6-0.5-2.5-2.3-4.2L59,34.6c-2.2-2.1-2.7-3.5-2.6-5.1c0.1-2.5,1.8-4.1,4.6-4c0.8,0,1.5,0.1,2,0.3
		c0.4,0.1,0.6,0.1,0.7,0.1c0.2,0,0.2,0.1,0.2,0.2c0,0.1-0.1,0.9-0.2,2.4c0,0.4-0.1,0.5-0.2,0.5c-0.1,0-0.1-0.1-0.2-0.3
		c0-0.3-0.1-0.9-0.2-1.2c-0.1-0.3-0.7-1.2-2.6-1.3c-1.5,0-2.7,0.9-2.7,2.6c0,1.3,0.5,2.2,2.5,3.9l0.6,0.5c2.5,2.2,3,3.7,3,5.5
		c0,0.9-0.4,2.7-1.9,3.8c-0.9,0.7-2.1,0.9-3.3,0.9C57.6,43.4,56.6,43.3,55.8,42.8z M67.2,34.3c0.1-3,0.1-3.6,0.1-4.2
		c0-0.6-0.2-1-0.8-1.1c-0.1,0-0.3-0.1-0.5-0.1c-0.2,0-0.3-0.1-0.3-0.1c0-0.1,0.1-0.2,0.3-0.2c0.4,0,1,0.1,2.2,0.1
		c0.1,0,3.9,0.1,4.4,0.1c0.4,0,0.7,0,0.8-0.1c0.1,0,0.2-0.1,0.2-0.1c0,0,0.1,0,0.1,0.2c0,0.1-0.1,0.5-0.2,1c0,0.4-0.1,0.8-0.1,1.2
		c0,0.2-0.1,0.3-0.2,0.3c-0.1,0-0.1-0.1-0.1-0.3c0-0.3-0.1-0.6-0.1-0.7c-0.1-0.5-0.3-0.6-1.4-0.7c-0.3,0-2.4-0.1-2.4-0.1
		c-0.1,0-0.1,0-0.1,0.2L69,35c0,0.1,0,0.2,0.1,0.2c0.3,0,2.4,0.1,2.9,0c0.5,0,0.8-0.1,1-0.3c0.1-0.1,0.2-0.2,0.2-0.2
		c0,0,0.1,0,0.1,0.1c0,0.1-0.1,0.6-0.2,1.2C73,36.7,73,37.2,73,37.5c0,0.2-0.1,0.3-0.2,0.2c-0.1,0-0.1-0.1-0.1-0.3
		c0-0.1,0-0.4,0-0.6c-0.1-0.3-0.2-0.6-1-0.7c-0.5-0.1-2.2-0.2-2.6-0.2c-0.1,0-0.2,0.1-0.2,0.2l-0.1,1.7c0,0.7-0.1,2.7-0.1,3.1
		c0,0.9,0.1,1.3,0.6,1.5c0.3,0.2,0.8,0.2,1.6,0.3c0.4,0,1.1,0.1,1.6-0.1c0.7-0.2,0.8-0.6,1-1.5c0.1-0.2,0.1-0.3,0.2-0.3
		c0.1,0,0.1,0.2,0.1,0.3c0,0.2-0.2,1.6-0.3,2c-0.1,0.5-0.3,0.5-1,0.5c-1.4,0-2-0.1-2.8-0.1c-0.8,0-1.7-0.1-2.5-0.1
		c-0.5,0-0.9,0-1.4,0c-0.2,0-0.3-0.1-0.3-0.2c0-0.1,0.1-0.2,0.2-0.2c0.1,0,0.3,0,0.4-0.1c0.4-0.1,0.7-0.4,0.7-1.8
		c0-0.8,0.1-1.7,0.1-3.5L67.2,34.3z M79,38.2c-0.1,2.6,0,4,0.3,4.4c0.3,0.3,0.8,0.5,2.2,0.5c0.9,0,1.8,0.1,2.3-0.6
		c0.2-0.3,0.4-0.8,0.4-1.1c0-0.2,0.1-0.3,0.2-0.3c0.1,0,0.1,0.1,0.1,0.3c0,0.2-0.2,1.5-0.3,2.1c-0.1,0.5-0.1,0.6-1.2,0.5
		c-1.5,0-3.1-0.2-5.2-0.3c-0.7,0-1.1,0-1.9,0c-0.2,0-0.3-0.1-0.3-0.2c0-0.1,0.1-0.1,0.2-0.1c0.2,0,0.3,0,0.5,0
		c0.4-0.1,0.5-0.5,0.6-1.1c0.2-0.9,0.2-2.5,0.2-4.2l0.1-3.5c0.1-3,0.1-3.5,0.1-4.2c0-0.6-0.1-1.1-0.8-1.2c-0.1,0-0.4,0-0.5,0
		c-0.2,0-0.2-0.1-0.2-0.2c0-0.1,0.1-0.2,0.3-0.2c0.9,0,2.2,0.1,2.2,0.1c0.3,0,1.6,0,2.2,0c0.2,0,0.3,0.1,0.3,0.2
		c0,0.1-0.1,0.2-0.2,0.2c-0.2,0-0.4,0-0.6,0c-0.6,0.1-0.7,0.4-0.8,1.1c-0.1,0.6-0.1,1.1-0.1,4.2L79,38.2z M89.2,38.6
		c-0.1,2.6,0,4,0.3,4.4c0.3,0.3,0.8,0.5,2.2,0.5c0.9,0,1.8,0.1,2.3-0.6c0.2-0.3,0.4-0.8,0.4-1.1c0-0.2,0.1-0.3,0.2-0.3
		c0.1,0,0.1,0.1,0.1,0.3c0,0.2-0.2,1.5-0.3,2.1c-0.1,0.5-0.1,0.6-1.2,0.5c-1.5,0-3.1-0.2-5.2-0.3c-0.7,0-1.1,0-1.9,0
		c-0.2,0-0.3-0.1-0.3-0.2c0-0.1,0.1-0.1,0.2-0.1c0.2,0,0.3,0,0.5,0c0.4-0.1,0.5-0.5,0.6-1.1c0.2-0.9,0.2-2.5,0.2-4.2l0.1-3.5
		c0.1-3,0.1-3.5,0.1-4.2c0-0.6-0.1-1.1-0.8-1.2c-0.1,0-0.4,0-0.5,0c-0.2,0-0.2-0.1-0.2-0.2c0-0.1,0.1-0.2,0.3-0.2
		c0.9,0,2.2,0.1,2.2,0.1c0.3,0,1.6,0,2.2,0c0.2,0,0.3,0.1,0.3,0.2c0,0.1-0.1,0.2-0.2,0.2c-0.2,0-0.4,0-0.6,0
		c-0.6,0.1-0.7,0.4-0.8,1.1c-0.1,0.6-0.1,1.1-0.1,4.2L89.2,38.6z M98.3,35.5c0.1-3,0.1-3.6,0.1-4.2c0-0.6-0.1-1-0.6-1.1
		c-0.2-0.1-0.4-0.1-0.5-0.1c-0.1,0-0.2-0.1-0.2-0.2c0-0.1,0.1-0.2,0.3-0.2c0.7,0,1.9,0.1,2,0.1c0.1,0,1.3,0,1.9,0
		c0.2,0,0.3,0.1,0.3,0.2c0,0.1-0.1,0.1-0.2,0.2c-0.1,0-0.2,0-0.4,0c-0.6,0.1-0.7,0.4-0.8,1.1c-0.1,0.6-0.1,1.1-0.1,4.2L100,39
		c-0.1,1.8-0.1,3.4,0,4.2c0.1,0.7,0.1,0.9,0.7,1.1c0.3,0.1,0.7,0.1,0.8,0.1c0.2,0,0.2,0.1,0.2,0.2c0,0.1-0.1,0.2-0.3,0.2
		c-1.1,0-2.3-0.1-2.4-0.1c-0.1,0-1.3,0-1.9,0c-0.2,0-0.3-0.1-0.3-0.2c0-0.1,0.1-0.2,0.3-0.2c0.1,0,0.3,0,0.5-0.1
		c0.4-0.1,0.4-0.5,0.5-1.1c0.1-0.8,0.2-2.5,0.2-4.2L98.3,35.5z M105.2,30.8c0-0.7,0.1-0.9,0.3-0.9c0.2,0,0.5,0.5,0.6,0.6
		c0.2,0.2,3.1,3.6,6,7c1.6,1.8,3.7,4.2,4.2,4.8l0.1-9.6c0-1.2-0.1-1.7-0.7-1.8c-0.4-0.1-0.7-0.1-0.8-0.1c-0.2,0-0.3-0.1-0.3-0.2
		c0-0.1,0.2-0.1,0.4-0.1c0.9,0,1.8,0.1,2,0.1c0.2,0,0.9,0,1.7,0c0.2,0,0.3,0,0.3,0.1c0,0.1-0.1,0.2-0.2,0.2c-0.1,0-0.3,0-0.5,0.1
		c-0.5,0.1-0.7,0.3-0.7,1.7l-0.4,11.6c0,1.2-0.1,1.3-0.2,1.3c-0.2,0-0.4-0.2-1.4-1.3c-0.1,0-3-3.3-4.8-5.3c-2.2-2.6-4.2-5-4.7-5.6
		l0,9c0,1.6,0.1,2.2,0.6,2.3c0.3,0.1,0.7,0.1,0.9,0.1c0.2,0,0.3,0.1,0.3,0.2c0,0.1-0.1,0.2-0.3,0.2c-1.2,0-1.9-0.1-2.1-0.1
		c-0.2,0-0.9,0-1.9,0c-0.2,0-0.3,0-0.3-0.2c0-0.1,0.1-0.2,0.3-0.2c0.2,0,0.4,0,0.7-0.1c0.5-0.1,0.6-0.8,0.7-2.4
		C105.2,31,105.1,34.6,105.2,30.8z M132.6,44.6c0,0.9,0,0.9-0.3,1.1c-1.2,0.6-2.9,0.8-4,0.8c-1.4,0-4.1-0.2-6.2-2.3
		c-1.1-1.1-2.2-3-2.1-5.7c0.1-3.1,1.6-5.3,3.4-6.4c1.7-1,3.5-1.1,4.8-1c1.4,0,2.3,0.3,3.1,0.4c0.3,0.1,1.2,0.2,1.6,0.3
		c0.2,0,0.2,0.1,0.2,0.2c0,0.3-0.2,1-0.2,3c0,0.3,0,0.4-0.2,0.4c-0.1,0-0.1-0.1-0.1-0.3c0-0.2-0.1-0.9-0.4-1.4
		c-0.5-0.8-2-1.7-4.4-1.7c-1.2,0-2.5,0-4,1.1c-1.1,0.9-1.9,2.6-2,4.9c-0.1,2.7,1.2,4.8,1.8,5.4c1.4,1.5,2.9,2.2,4.8,2.3
		c0.6,0,1.5-0.1,2.1-0.3c0.2-0.1,0.4-0.4,0.4-0.7l0.1-3.3c0-1.5-0.1-1.8-0.8-2c-0.1,0-0.3-0.1-0.5-0.1c-0.2,0-0.3-0.1-0.3-0.2
		c0-0.1,0.1-0.2,0.3-0.2c0.9,0,2.1,0.1,2.2,0.1c0.1,0,1.4,0,1.9,0c0.2,0,0.3,0.1,0.3,0.2c0,0.1-0.1,0.2-0.3,0.2c-0.1,0-0.2,0-0.4,0
		c-0.5,0.1-0.7,0.5-0.7,1.1c-0.1,0.7-0.1,1.2-0.1,2.1L132.6,44.6z"/>
</g>
<g>
	<polygon class="st0" points="70.7,97.1 70.9,59 79.4,59.4 79.2,96.6 	"/>
</g>
</svg>
