<?xml version="1.0" encoding="iso-8859-1"?>
<!-- Generator: Adobe Illustrator 19.0.0, SVG Export Plug-In . SVG Version: 6.00 Build 0)  -->
<svg version="1.1" id="Layer_1" xmlns="http://www.w3.org/2000/svg" xmlns:xlink="http://www.w3.org/1999/xlink" x="0px" y="0px"
	 viewBox="0 0 512 512" style="enable-background:new 0 0 512 512;" xml:space="preserve">
<circle style="fill:#263A7A;" cx="256" cy="256" r="256"/>
<g>
	<path style="fill:#121149;" d="M511.886,263.387l-90.393-90.393L113.776,398.222l111.992,111.992
		c9.916,1.167,20.001,1.786,30.23,1.786C394.914,512,507.976,401.355,511.886,263.387z"/>
	<polygon style="fill:#121149;" points="90.503,206.093 124.221,239.811 131.305,172.994 	"/>
</g>
<polygon style="fill:#FFC61B;" points="398.22,398.222 113.776,398.222 113.776,170.667 255.998,113.778 398.22,170.667 "/>
<polygon style="fill:#D48B07;" points="398.22,170.667 256.288,113.893 256.288,398.222 398.22,398.222 "/>
<polygon style="fill:#E03A00;" points="421.493,172.994 255.998,106.796 90.503,172.994 90.503,206.093 255.998,139.895 
	421.493,206.093 "/>
<polygon style="fill:#940030;" points="421.493,172.994 256.288,106.911 256.288,140.01 421.493,206.093 "/>
<path style="fill:#121149;" d="M287.994,302.659c-0.783,0-1.579-0.134-2.358-0.417c-3.579-1.303-5.423-5.26-4.122-8.838
	l17.541-48.193c2.441-6.708,2.124-13.964-0.893-20.432c-3.015-6.468-8.37-11.376-15.077-13.817
	c-6.709-2.443-13.967-2.122-20.433,0.893c-6.468,3.015-11.376,8.37-13.817,15.077c-1.302,3.579-5.26,5.423-8.838,4.122
	c-3.579-1.303-5.423-5.26-4.122-8.838c3.701-10.168,11.142-18.285,20.947-22.861c9.806-4.57,20.806-5.054,30.979-1.352
	c20.992,7.64,31.853,30.934,24.212,51.924l-17.541,48.193C293.455,300.922,290.809,302.659,287.994,302.659z"/>
<path style="fill:#FF5419;" d="M293.35,369.778h-74.702c-10.79,0-19.539-8.747-19.539-19.537v-65.796h113.778v65.796
	C312.889,361.031,304.142,369.778,293.35,369.778z"/>
<path style="fill:#D83307;" d="M256.288,284.444v85.333h37.064c10.79,0,19.537-8.747,19.537-19.537v-65.796H256.288z"/>
<path style="fill:#263A7A;" d="M266.343,323.017c0-5.713-4.63-10.343-10.343-10.343c-5.713,0-10.343,4.63-10.343,10.343
	c0,4.172,2.476,7.759,6.034,9.394v8.276c0,2.381,1.929,4.31,4.31,4.31s4.31-1.929,4.31-4.31v-8.276
	C263.868,330.776,266.343,327.189,266.343,323.017z"/>
<path style="fill:#121149;" d="M256.288,312.687v32.28c2.245-0.152,4.022-1.998,4.022-4.28v-8.276
	c3.558-1.636,6.034-5.222,6.034-9.394C266.343,317.402,261.866,312.842,256.288,312.687z"/>
<g>
</g>
<g>
</g>
<g>
</g>
<g>
</g>
<g>
</g>
<g>
</g>
<g>
</g>
<g>
</g>
<g>
</g>
<g>
</g>
<g>
</g>
<g>
</g>
<g>
</g>
<g>
</g>
<g>
</g>
</svg>
